<?xml version="1.0" encoding="UTF-8"?>
<svg id="Layer_1" data-name="Layer 1" xmlns="http://www.w3.org/2000/svg" xmlns:xlink="http://www.w3.org/1999/xlink" viewBox="0 0 100 126.86">
  <defs>
    <linearGradient id="linear-gradient" x1="-1262.03" y1="-1422.88" x2="-1236.33" y2="-1359.31" gradientTransform="translate(-1753.6 -326.02) rotate(-120.01) scale(1 -1)" gradientUnits="userSpaceOnUse">
      <stop offset="0" stop-color="#fdef8e"/>
      <stop offset="0" stop-color="#f6e688"/>
      <stop offset=".02" stop-color="#d5ba69"/>
      <stop offset=".04" stop-color="#bb9750"/>
      <stop offset=".05" stop-color="#a87e3f"/>
      <stop offset=".06" stop-color="#9c6f34"/>
      <stop offset=".08" stop-color="#996a31"/>
      <stop offset=".22" stop-color="#fbe689"/>
      <stop offset=".24" stop-color="#e4c874"/>
      <stop offset=".27" stop-color="#cfae61"/>
      <stop offset=".29" stop-color="#c09b54"/>
      <stop offset=".32" stop-color="#b7904c"/>
      <stop offset=".34" stop-color="#b58d4a"/>
      <stop offset=".48" stop-color="#e6cb76"/>
      <stop offset=".62" stop-color="#c8961e"/>
      <stop offset=".71" stop-color="#cea131"/>
      <stop offset=".78" stop-color="#fdef8e"/>
      <stop offset=".89" stop-color="#c9971c"/>
    </linearGradient>
    <linearGradient id="linear-gradient-2" x1="-1282.49" y1="-1367.16" x2="-1238.93" y2="-1354.07" gradientTransform="translate(-1753.6 -326.02) rotate(-120.01) scale(1 -1)" gradientUnits="userSpaceOnUse">
      <stop offset="0" stop-color="#8a5000"/>
      <stop offset="1" stop-color="#fef7a2"/>
    </linearGradient>
    <linearGradient id="linear-gradient-3" x1="617.67" y1="1838.98" x2="547.01" y2="1748.58" gradientTransform="translate(-1821.15 -326.02) rotate(-59.99)" gradientUnits="userSpaceOnUse">
      <stop offset=".23" stop-color="gray"/>
      <stop offset=".24" stop-color="#939393"/>
      <stop offset=".27" stop-color="#c6c6c6"/>
      <stop offset=".29" stop-color="#f9f9f9"/>
      <stop offset=".3" stop-color="#d9d9d9"/>
      <stop offset=".31" stop-color="#b3b3b3"/>
      <stop offset=".32" stop-color="#999"/>
      <stop offset=".33" stop-color="#888"/>
      <stop offset=".33" stop-color="#838383"/>
      <stop offset=".37" stop-color="#6f6f6f"/>
      <stop offset=".41" stop-color="#666"/>
      <stop offset=".46" stop-color="#8b8b8b"/>
      <stop offset=".46" stop-color="#8f8f8f"/>
      <stop offset=".47" stop-color="#bfbfbf"/>
      <stop offset=".48" stop-color="#e1e1e1"/>
      <stop offset=".49" stop-color="#f7f7f7"/>
      <stop offset=".5" stop-color="#fff"/>
      <stop offset=".5" stop-color="#fcfcfc"/>
      <stop offset=".52" stop-color="#c7c7c7"/>
      <stop offset=".53" stop-color="#9d9d9d"/>
      <stop offset=".55" stop-color="#7e7e7e"/>
      <stop offset=".56" stop-color="#6c6c6c"/>
      <stop offset=".57" stop-color="#666"/>
      <stop offset="1" stop-color="#fff"/>
    </linearGradient>
    <linearGradient id="New_Gradient_Swatch_7" data-name="New Gradient Swatch 7" x1="-1966.68" y1="45.03" x2="-1917.86" y2="45.03" gradientTransform="translate(-1916.68) rotate(-180) scale(1 -1)" gradientUnits="userSpaceOnUse">
      <stop offset=".19" stop-color="#4d4d4d"/>
      <stop offset=".21" stop-color="#606060"/>
      <stop offset=".25" stop-color="#949494"/>
      <stop offset=".3" stop-color="#e6e6e6"/>
      <stop offset=".31" stop-color="#f9f9f9"/>
      <stop offset=".46" stop-color="#fdfdfd"/>
      <stop offset="1" stop-color="#fff"/>
    </linearGradient>
    <linearGradient id="linear-gradient-4" x1="-1956.19" y1="93.29" x2="-1945.03" y2="94.86" gradientTransform="translate(-1916.68) rotate(-180) scale(1 -1)" gradientUnits="userSpaceOnUse">
      <stop offset=".68" stop-color="#8b8b8b"/>
      <stop offset=".7" stop-color="#a9a9a9"/>
      <stop offset=".72" stop-color="#c3c3c3"/>
      <stop offset=".74" stop-color="#d9d9d9"/>
      <stop offset=".77" stop-color="#eaeaea"/>
      <stop offset=".81" stop-color="#f6f6f6"/>
      <stop offset=".86" stop-color="#fdfdfd"/>
      <stop offset="1" stop-color="#fff"/>
    </linearGradient>
  </defs>
  <g>
    <path d="m50.02,126.85l18.72-107.41c1.57.47,3.13.99,4.67,1.55h0c3.65,1.33,7.22,2.91,10.68,4.73h0c-1.03,19.84-8.27,39.07-20.88,54.45h0l-4.59,26.33c24.28-19.07,39.19-48.32,40.84-79.92h0l.54-10.4-8.95-4.71c-4.83-2.54-9.81-4.67-14.89-6.38h0C67.65,2.22,58.85.52,49.99,0h0s.03,126.85.03,126.85h0Z" fill="url(#linear-gradient)"/>
    <path d="m50,55.98v-6.08s7.13,0,7.13,0l-.56,6.08h-6.57Zm0-9.91v-4.5s7.9,0,7.9,0l-.42,4.5h-7.49Zm0-8.34v-3.64s8.59,0,8.59,0l-.34,3.64h-8.26s0,0,0,0Zm48.82-3.65c-.15,1.22-.31,2.43-.5,3.64h-7.81c.2-1.21.38-2.42.54-3.64h7.77s0,0,0,0Zm-1.15,7.48c-.29,1.51-.6,3.01-.95,4.5h-7.94c.37-1.49.72-2.99,1.03-4.5h7.86Zm-1.91,8.34c-.55,2.05-1.16,4.07-1.83,6.08h-8.19c.73-2,1.39-4.02,1.99-6.08h8.03Zm-18.21,5.9c.07-.19.15-.38.22-.56-.07.19-.15.38-.22.56Zm.33-.85c.07-.19.14-.38.22-.57-.07.19-.14.38-.22.57Z" fill="rgba(249, 252, 186, .3)"/>
    <polygon points="58.62 106.52 71.55 82.19 63.21 80.19 58.62 106.52" fill="url(#linear-gradient-2)"/>
    <path d="m63.21,80.18l8.33,2.01c11.99-15.91,19.15-35.43,20.22-56.03l.27-5.19-4.47-2.35c-8.51-4.48-17.5-7.57-26.69-9.26l-8.5,92.01-2.35,25.48,4.77-27.36,13.95-80.05c1.57.47,3.13.99,4.67,1.55,3.65,1.33,7.22,2.91,10.68,4.73-1.03,19.84-8.27,39.07-20.88,54.45Z" fill="rgba(107, 48, 0, .5)"/>
    <path d="m71.93,83.33l.39-.51c12.23-16.23,19.35-36.01,20.43-56.6l.31-5.86-5.04-2.65c-8.49-4.47-17.59-7.63-26.97-9.35l-1.05-.19-9.98,108.03v10.66s2.36-25.48,2.36-25.48L60.87,9.36c9.19,1.69,18.19,4.78,26.69,9.26l4.47,2.35-.27,5.19c-1.07,20.6-8.23,40.12-20.22,56.03l-.49.93-12.43,23.4,13.31-23.18h0Z" fill="rgba(249, 252, 186, .5)"/>
  </g>
  <g>
    <path d="m49.98,126.86L31.26,19.45c-1.57.47-3.13.99-4.67,1.55h0c-3.65,1.33-7.22,2.91-10.68,4.73h0c1.03,19.84,8.27,39.07,20.88,54.45h0l4.59,26.33C17.1,87.45,2.19,58.2.54,26.59h0l-.54-10.4,8.95-4.71c4.83-2.54,9.81-4.67,14.89-6.38h0C32.35,2.23,41.15.53,50.01,0h0s-.03,126.85-.03,126.85h0Z" fill="url(#linear-gradient-3)"/>
    <path d="m43.43,55.98l-.56-6.08h7.13s0,6.08,0,6.08h-6.57Zm6.57-9.91h-7.49s-.42-4.5-.42-4.5h7.9s0,4.5,0,4.5h0Zm0-8.34h-8.26s-.34-3.64-.34-3.64h8.59s0,3.64,0,3.64h0ZM1.18,34.07h7.77c.16,1.22.34,2.43.54,3.64H1.68c-.19-1.21-.35-2.43-.5-3.64h0Zm1.15,7.48h7.86c.31,1.51.65,3.01,1.03,4.5H3.28c-.35-1.49-.66-2.99-.95-4.5h0Zm9.94,8.34c.6,2.05,1.27,4.08,1.99,6.08H6.07c-.67-2.01-1.28-4.03-1.83-6.08h8.03Zm9.96,5.33c.07.19.15.38.22.56-.07-.19-.15-.38-.22-.56Zm-.33-.85c.07.19.14.38.22.57-.07-.19-.14-.38-.22-.57Z" fill="url(#New_Gradient_Swatch_7)" fill-opacity=".3"/>
    <polygon points="41.38 106.52 28.45 82.19 36.79 80.19 41.38 106.52" fill="url(#linear-gradient-4)"/>
    <path d="m36.79,80.19l-8.33,2.01c-11.99-15.91-19.15-35.43-20.22-56.03l-.27-5.19,4.47-2.35c8.51-4.48,17.5-7.57,26.69-9.26l8.5,92.01,2.35,25.48-4.77-27.36L31.26,19.45c-1.57.47-3.13.99-4.67,1.55-3.65,1.33-7.22,2.91-10.68,4.73,1.03,19.84,8.27,39.07,20.88,54.45Z" fill="rgba(229, 229, 229, .5)"/>
    <path d="m28.07,83.33l-.39-.51C15.45,66.59,8.33,46.82,7.26,26.22l-.31-5.86,5.04-2.65c8.49-4.47,17.59-7.63,26.97-9.35l1.05-.19,9.98,108.03v10.66s-2.36-25.48-2.36-25.48L39.13,9.36c-9.19,1.69-18.19,4.78-26.69,9.26l-4.47,2.35.27,5.19c1.07,20.6,8.23,40.12,20.22,56.03l.49.93,12.43,23.4-13.31-23.18h0Z" fill="rgba(153, 153, 153, .5)"/>
  </g>
</svg>